<?xml version="1.0"?>
<svg xmlns="http://www.w3.org/2000/svg" xmlns:xlink="http://www.w3.org/1999/xlink" version="1.1" viewBox="0 0 192 192" width="96px" height="96px"><g fill="none" fill-rule="nonzero" stroke="none" stroke-width="1" stroke-linecap="butt" stroke-linejoin="miter" stroke-miterlimit="10" stroke-dasharray="" stroke-dashoffset="0" font-family="none" font-weight="none" font-size="none" text-anchor="none" style="mix-blend-mode: normal"><path d="M0,192v-192h192v192z" fill="none"/><g fill="#8459b5"><path d="M164.57813,24.09375c-2.659,-0.282 -5.54913,0.13325 -8.45313,1.28125c-3.6,1.416 -60.00975,25.14525 -112.59375,47.28125l-17.375,7.3125c-6.728,2.728 -10.125,7.16463 -10.125,13.14063c0,4.184 1.77075,9.85913 10.21875,13.20312l29.32812,11.75c2.536,7.60801 8.42625,25.27275 9.90625,29.96875c0.88,2.784 3.10275,9.7975 8.71875,11.4375c1.152,0.392 2.35413,0.59375 3.57812,0.59374c3.544,0 6.09575,-1.64937 7.34375,-2.60937l18.64062,-15.76562l22.64062,20.9375c0.872,0.888 5.4875,5.375 11.6875,5.375c7.736,0 13.60412,-6.43987 14.82812,-12.67187c0.664,-3.416 22.5,-113.03163 22.5,-113.01563c1.96,-8.792 -1.56412,-13.35288 -3.82812,-15.29688c-1.94,-1.66 -4.35662,-2.63987 -7.01562,-2.92187zM159.28125,41.375c-3.016,15.12 -19.45712,97.65087 -21.95312,109.54687l-33.09375,-30.60938l-22.45313,19.01563l6.21875,-24.32813c0,0 42.90038,-43.42512 45.48438,-45.95312c2.08,-2.024 2.51562,-2.7335 2.51562,-3.4375c0,-0.936 -0.48175,-1.60938 -1.59375,-1.60938c-1,0 -2.35812,0.95825 -3.07812,1.40625c-9.14678,5.70253 -48.09538,27.89166 -67.26563,38.79688l-27.8125,-11.10938l13.5,-5.67188c34.392,-14.48 95.64325,-40.27087 109.53125,-46.04687z"/></g></g></svg>
