<?xml version="1.0"?>
<svg xmlns="http://www.w3.org/2000/svg" xmlns:xlink="http://www.w3.org/1999/xlink" version="1.1" viewBox="0 0 192 192" width="96px" height="96px"><g fill="none" fill-rule="nonzero" stroke="none" stroke-width="1" stroke-linecap="butt" stroke-linejoin="miter" stroke-miterlimit="10" stroke-dasharray="" stroke-dashoffset="0" font-family="none" font-weight="none" font-size="none" text-anchor="none" style="mix-blend-mode: normal"><path d="M0,192v-192h192v192z" fill="none"/><g fill="#8459b5"><path d="M96.09375,16c-44.048,0 -79.90588,35.827 -79.92188,79.875c-0.008,14.08 3.67987,27.8255 10.67188,39.9375l-10.84375,40.1875l41.85938,-9.89062c11.672,6.368 24.8115,9.71075 38.1875,9.71875h0.03126c44.04,0 79.88225,-35.835 79.90625,-79.875c0.016,-21.352 -8.287,-41.42725 -23.375,-56.53125c-15.088,-15.096 -35.13962,-23.41388 -56.51562,-23.42188zM96.07813,32c17.088,0.008 33.14674,6.67038 45.21874,18.73438c12.072,12.08 18.7035,28.13112 18.6875,45.20313c-0.016,35.23199 -28.67388,63.89062 -63.92188,63.89062c-10.664,-0.008 -21.22725,-2.68563 -30.53125,-7.76563l-5.39062,-2.9375l-5.95312,1.40625l-15.75,3.71875l3.84375,-14.28125l1.73438,-6.40626l-3.3125,-5.75c-5.584,-9.664 -8.53925,-20.7135 -8.53125,-31.9375c0.016,-35.216 28.68225,-63.875 63.90625,-63.875zM67.8125,59c-1.336,0 -3.49612,0.5 -5.32812,2.5c-1.832,1.992 -7,6.81662 -7,16.64062c0,9.824 7.15625,19.32025 8.15625,20.65625c0.992,1.328 13.81338,22.125 34.10938,30.125c16.864,6.648 20.28913,5.336 23.95313,5c3.664,-0.328 11.82038,-4.82038 13.48438,-9.48437c1.66399,-4.66401 1.66787,-8.67601 1.17187,-9.5c-0.496,-0.832 -1.82813,-1.32813 -3.82813,-2.32813c-1.992,-1 -11.80862,-5.82038 -13.64062,-6.48438c-1.832,-0.664 -3.172,-1 -4.5,1c-1.328,2 -5.1445,6.4845 -6.3125,7.8125c-1.168,1.336 -2.32813,1.51562 -4.32813,0.51562c-2,-1.008 -8.4305,-3.12188 -16.0625,-9.92188c-5.93601,-5.288 -9.94138,-11.8125 -11.10938,-13.8125c-1.16,-1.992 -0.10937,-3.08613 0.89063,-4.07813c0.896,-0.896 1.98437,-2.332 2.98438,-3.5c0.992,-1.168 1.336,-2.00013 2,-3.32813c0.664,-1.328 0.32412,-2.5 -0.17188,-3.5c-0.496,-1 -4.38025,-10.8605 -6.15625,-14.8125c-1.496,-3.32 -3.076,-3.39712 -4.5,-3.45312c-1.16,-0.048 -2.4845,-0.04688 -3.8125,-0.04688z"/></g></g></svg>
