<?xml version="1.0"?>
<svg xmlns="http://www.w3.org/2000/svg" xmlns:xlink="http://www.w3.org/1999/xlink" version="1.1" viewBox="0 0 192 192" width="96px" height="96px"><g fill="none" fill-rule="nonzero" stroke="none" stroke-width="1" stroke-linecap="butt" stroke-linejoin="miter" stroke-miterlimit="10" stroke-dasharray="" stroke-dashoffset="0" font-family="none" font-weight="none" font-size="none" text-anchor="none" style="mix-blend-mode: normal"><path d="M0,192v-192h192v192z" fill="none"/><g fill="#8459b5"><path d="M32,16c-8.84,0 -16,7.16 -16,16v96c0,8.84 7.16,16 16,16h96c8.84,0 16,-7.16 16,-16v-96c0,-8.84 -7.16,-16 -16,-16zM32,32h96v96h-96zM160,48v112h-112v16h112c8.84,0 16,-7.16 16,-16v-112zM106.34375,50.34375l-34.34375,34.34375l-18.34375,-18.34375l-11.3125,11.3125l29.65625,29.65625l45.65625,-45.65625z"/></g></g></svg>
