<?xml version="1.0"?>
<svg xmlns="http://www.w3.org/2000/svg" xmlns:xlink="http://www.w3.org/1999/xlink" version="1.1" viewBox="0 0 192 192" width="96px" height="96px"><g fill="none" fill-rule="nonzero" stroke="none" stroke-width="1" stroke-linecap="butt" stroke-linejoin="miter" stroke-miterlimit="10" stroke-dasharray="" stroke-dashoffset="0" font-family="none" font-weight="none" font-size="none" text-anchor="none" style="mix-blend-mode: normal"><path d="M0,192v-192h192v192z" fill="none"/><g fill="#8459b5"><path d="M77.32812,16l-3.92188,20.1875c-6.59334,2.48653 -12.64796,5.97195 -17.95312,10.32812l-19.39062,-6.6875l-18.6875,32.34375l15.53125,13.5c-0.59706,3.66581 -0.90625,7.06289 -0.90625,10.32813c0,3.27014 0.31846,6.66101 0.90625,10.32813v0.01562l-15.53125,13.5l18.6875,32.32812l19.375,-6.67187c5.30566,4.35855 11.37398,7.82454 17.96875,10.3125l3.92188,20.1875h37.34375l3.92188,-20.1875c6.59765,-2.48815 12.64547,-5.96794 17.95312,-10.32812l19.39063,6.6875l18.67187,-32.32812l-15.51562,-13.51562c0.59706,-3.66581 0.90625,-7.06289 0.90625,-10.32813c0,-3.26034 -0.31096,-6.65301 -0.90625,-10.3125v-0.01563l15.53125,-13.51562l-18.6875,-32.32812l-19.37501,6.67188c-5.30565,-4.35855 -11.37398,-7.82454 -17.96874,-10.3125l-3.92188,-20.1875zM90.51562,32h10.96875l3.10938,16l8.34375,3.15625c5.02931,1.89551 9.54787,4.49779 13.46874,7.71875l6.90625,5.65625l15.37501,-5.28125l5.48437,9.48438l-12.28125,10.6875l1.40625,8.79688v0.01562c0.48919,2.9995 0.70313,5.51577 0.70313,7.76562c0,2.24986 -0.21393,4.76574 -0.70313,7.76562l-1.42187,8.79687l12.28125,10.6875l-5.48438,9.5l-15.35938,-5.29687l-6.92187,5.67187c-3.92087,3.22096 -8.42381,5.82324 -13.45312,7.71875h-0.01563l-8.34374,3.15625l-3.10938,16h-10.95313l-3.10938,-16l-8.34375,-3.15625c-5.02933,-1.89551 -9.54787,-4.49779 -13.46875,-7.71875l-6.90625,-5.65625l-15.375,5.28125l-5.48438,-9.48438l12.29688,-10.70313l-1.42188,-8.76562v-0.01562c-0.48218,-3.01254 -0.70312,-5.53586 -0.70312,-7.78125c0,-2.24986 0.21394,-4.76574 0.70312,-7.76562l1.42188,-8.79688l-12.29688,-10.6875l5.48438,-9.5l15.375,5.29688l6.90625,-5.67188c3.92088,-3.22096 8.43942,-5.82324 13.46875,-7.71875l8.34375,-3.15625zM96,64c-17.57219,0 -32,14.42781 -32,32c0,17.57218 14.42781,32 32,32c17.57218,0 32,-14.42782 32,-32c0,-17.57219 -14.42782,-32 -32,-32zM96,80c8.89182,0 16,7.10818 16,16c0,8.89182 -7.10818,16 -16,16c-8.89182,0 -16,-7.10818 -16,-16c0,-8.89182 7.10818,-16 16,-16z"/></g></g></svg>
