<?xml version="1.0"?>
<svg xmlns="http://www.w3.org/2000/svg" xmlns:xlink="http://www.w3.org/1999/xlink" version="1.1" viewBox="0 0 192 192" width="96px" height="96px"><g fill="none" fill-rule="nonzero" stroke="none" stroke-width="1" stroke-linecap="butt" stroke-linejoin="miter" stroke-miterlimit="10" stroke-dasharray="" stroke-dashoffset="0" font-family="none" font-weight="none" font-size="none" text-anchor="none" style="mix-blend-mode: normal"><path d="M0,192v-192h192v192z" fill="none"/><g fill="#8459b5"><path d="M40,24c-8.824,0 -16,7.176 -16,16v112c0,8.824 7.176,16 16,16h52.96875h22.34374h36.6875c8.824,0 16,-7.176 16,-16v-112c0,-8.824 -7.176,-16 -16,-16zM40,40h112l0.01562,112h-36.70313v-31.71875h18.92188l2.8125,-21.79687h-21.60937v-13.89062c-0.00001,-6.304 1.75687,-10.5625 10.79687,-10.5625h11.42187v-19.45312c-5.56,-0.568 -11.14238,-0.84412 -16.73438,-0.82812c-16.592,0 -27.95312,10.12675 -27.95312,28.71875v16.04687h-18.75v21.79687h18.75v31.6875h-52.96875z"/></g></g></svg>
