<?xml version="1.0"?>
<svg xmlns="http://www.w3.org/2000/svg" xmlns:xlink="http://www.w3.org/1999/xlink" version="1.1" viewBox="0 0 192 192" width="96px" height="96px"><g fill="none" fill-rule="nonzero" stroke="none" stroke-width="1" stroke-linecap="butt" stroke-linejoin="miter" stroke-miterlimit="10" stroke-dasharray="" stroke-dashoffset="0" font-family="none" font-weight="none" font-size="none" text-anchor="none" style="mix-blend-mode: normal"><path d="M0,192v-192h192v192z" fill="none"/><g fill="#8459b5"><path d="M64,16c-13.15976,0 -24,10.84024 -24,24v88h-24v24c0,13.15976 10.84024,24 24,24h72h8c13.15976,0 24,-10.84024 24,-24v-88h32v-24c0,-13.15976 -10.84024,-24 -24,-24zM64,32h65.5c-0.90848,2.51913 -1.5,5.18526 -1.5,8v112c0,4.48145 -3.42706,7.92534 -7.89062,7.98438v-0.09375c-4.5079,0.06089 -8.04817,-3.38594 -8.10938,-7.89062l-0.21875,-23.96875l-7.78125,0.07813v-0.10938h-48v-88c0,-4.52024 3.47976,-8 8,-8zM152,32c4.52024,0 8,3.47976 8,8v8h-16v-8c0,-4.52024 3.47976,-8 8,-8zM32,144h63.92187l0.07813,8.20313v0.01562c0.03723,2.74036 0.64982,5.33082 1.54687,7.78125h-57.54687c-4.52024,0 -8,-3.47976 -8,-8z"/></g></g></svg>
